<svg xmlns="http://www.w3.org/2000/svg" xmlns:xlink="http://www.w3.org/1999/xlink" viewBox="0 0 506 350" width="106" height="150"><path d="M 77.500,166.000 C 78.980,160.994 79.000,161.000 80.500,156.000" stroke-width="5.317" stroke="#32C5FF" fill="none" stroke-linecap="round"></path><path d="M 80.500,156.000 C 83.572,149.685 82.480,149.494 84.500,143.000" stroke-width="3.488" stroke="#32C5FF" fill="none" stroke-linecap="round"></path><path d="M 84.500,143.000 C 85.500,131.488 86.072,131.685 85.500,120.000" stroke-width="2.567" stroke="#32C5FF" fill="none" stroke-linecap="round"></path><path d="M 85.500,120.000 C 84.762,109.262 85.500,114.488 84.500,109.000" stroke-width="3.104" stroke="#32C5FF" fill="none" stroke-linecap="round"></path><path d="M 84.500,109.000 C 84.144,114.017 84.262,108.762 84.500,119.000" stroke-width="4.168" stroke="#32C5FF" fill="none" stroke-linecap="round"></path><path d="M 84.500,119.000 C 85.165,135.120 85.644,135.017 87.500,151.000" stroke-width="2.316" stroke="#32C5FF" fill="none" stroke-linecap="round"></path><path d="M 87.500,151.000 C 90.524,169.106 90.165,169.120 94.500,187.000" stroke-width="1.970" stroke="#32C5FF" fill="none" stroke-linecap="round"></path><path d="M 94.500,187.000 C 98.407,205.173 98.524,205.106 103.500,223.000" stroke-width="1.769" stroke="#32C5FF" fill="none" stroke-linecap="round"></path><path d="M 103.500,223.000 C 107.615,236.647 107.407,236.673 112.500,250.000" stroke-width="1.991" stroke="#32C5FF" fill="none" stroke-linecap="round"></path><path d="M 112.500,250.000 C 115.545,256.981 115.115,257.147 118.500,264.000" stroke-width="2.628" stroke="#32C5FF" fill="none" stroke-linecap="round"></path><path d="M 118.500,264.000 C 119.796,269.235 119.545,266.481 120.500,269.000" stroke-width="3.597" stroke="#32C5FF" fill="none" stroke-linecap="round"></path><path d="M 120.500,269.000 C 121.868,265.945 121.296,268.735 121.500,263.000" stroke-width="4.616" stroke="#32C5FF" fill="none" stroke-linecap="round"></path><path d="M 121.500,263.000 C 120.065,257.980 120.868,257.945 118.500,253.000" stroke-width="4.024" stroke="#32C5FF" fill="none" stroke-linecap="round"></path><path d="M 118.500,253.000 C 107.596,223.361 109.065,222.980 99.500,193.000" stroke-width="1.904" stroke="#32C5FF" fill="none" stroke-linecap="round"></path><path d="M 99.500,193.000 C 94.748,170.546 93.596,170.861 90.500,148.000" stroke-width="1.618" stroke="#32C5FF" fill="none" stroke-linecap="round"></path><path d="M 90.500,148.000 C 88.936,135.909 88.248,136.046 86.500,124.000" stroke-width="2.049" stroke="#32C5FF" fill="none" stroke-linecap="round"></path><path d="M 86.500,124.000 C 82.855,114.164 84.436,113.909 81.500,104.000" stroke-width="2.464" stroke="#32C5FF" fill="none" stroke-linecap="round"></path><path d="M 81.500,104.000 C 80.089,91.343 79.855,91.664 80.500,79.000" stroke-width="2.828" stroke="#32C5FF" fill="none" stroke-linecap="round"></path><path d="M 80.500,79.000 C 80.768,75.925 80.589,76.343 82.500,74.000" stroke-width="3.705" stroke="#32C5FF" fill="none" stroke-linecap="round"></path><path d="M 82.500,74.000 C 85.757,69.000 85.268,70.925 89.500,69.000" stroke-width="4.221" stroke="#32C5FF" fill="none" stroke-linecap="round"></path><path d="M 89.500,69.000 C 95.630,70.591 94.757,69.000 100.500,74.000" stroke-width="3.454" stroke="#32C5FF" fill="none" stroke-linecap="round"></path><path d="M 100.500,74.000 C 105.223,78.295 105.630,77.591 109.500,83.000" stroke-width="3.284" stroke="#32C5FF" fill="none" stroke-linecap="round"></path><path d="M 109.500,83.000 C 115.478,89.185 115.223,89.295 120.500,96.000" stroke-width="2.872" stroke="#32C5FF" fill="none" stroke-linecap="round"></path><path d="M 120.500,96.000 C 122.113,98.949 122.478,98.685 123.500,102.000" stroke-width="3.597" stroke="#32C5FF" fill="none" stroke-linecap="round"></path><path d="M 123.500,102.000 C 125.027,104.399 124.613,104.449 125.500,107.000" stroke-width="4.044" stroke="#32C5FF" fill="none" stroke-linecap="round"></path><path d="M 125.500,107.000 C 125.500,110.000 126.027,109.899 125.500,113.000" stroke-width="4.123" stroke="#32C5FF" fill="none" stroke-linecap="round"></path><path d="M 125.500,113.000 C 127.455,117.393 125.500,116.500 125.500,120.000" stroke-width="4.025" stroke="#32C5FF" fill="none" stroke-linecap="round"></path><path d="M 125.500,120.000 C 118.966,128.357 119.955,127.393 110.500,133.000" stroke-width="2.830" stroke="#32C5FF" fill="none" stroke-linecap="round"></path><path d="M 110.500,133.000 C 102.364,134.580 103.466,136.857 94.500,137.000" stroke-width="2.788" stroke="#32C5FF" fill="none" stroke-linecap="round"></path><path d="M 94.500,137.000 C 89.204,138.491 89.364,138.580 84.500,141.000" stroke-width="3.216" stroke="#32C5FF" fill="none" stroke-linecap="round"></path><path d="M 84.500,141.000 C 80.828,142.344 81.704,142.491 79.500,145.000" stroke-width="4.135" stroke="#32C5FF" fill="none" stroke-linecap="round"></path><path d="M 79.500,145.000 C 77.578,149.314 77.828,148.344 78.500,153.000" stroke-width="4.607" stroke="#32C5FF" fill="none" stroke-linecap="round"></path><path d="M 78.500,153.000 C 80.327,157.551 79.578,157.314 83.500,161.000" stroke-width="3.803" stroke="#32C5FF" fill="none" stroke-linecap="round"></path><path d="M 83.500,161.000 C 91.113,171.817 91.827,170.051 101.500,178.000" stroke-width="2.736" stroke="#32C5FF" fill="none" stroke-linecap="round"></path><path d="M 101.500,178.000 C 113.204,183.594 112.113,184.317 125.500,186.000" stroke-width="2.385" stroke="#32C5FF" fill="none" stroke-linecap="round"></path><path d="M 125.500,186.000 C 136.585,187.856 136.204,188.094 147.500,187.000" stroke-width="2.627" stroke="#32C5FF" fill="none" stroke-linecap="round"></path><path d="M 147.500,187.000 C 162.371,185.532 162.085,185.856 176.500,182.000" stroke-width="2.672" stroke="#32C5FF" fill="none" stroke-linecap="round"></path><path d="M 176.500,182.000 C 181.300,181.116 180.371,181.032 183.500,178.000" stroke-width="3.381" stroke="#32C5FF" fill="none" stroke-linecap="round"></path><path d="M 183.500,178.000 C 187.057,171.733 187.300,172.616 188.500,165.000" stroke-width="4.162" stroke="#32C5FF" fill="none" stroke-linecap="round"></path><path d="M 188.500,165.000 C 191.098,156.712 190.057,157.733 189.500,150.000" stroke-width="3.390" stroke="#32C5FF" fill="none" stroke-linecap="round"></path><path d="M 189.500,150.000 C 186.713,144.000 188.598,146.212 183.500,144.000" stroke-width="4.098" stroke="#32C5FF" fill="none" stroke-linecap="round"></path><path d="M 183.500,144.000 C 178.149,146.026 179.713,144.000 175.500,150.000" stroke-width="4.269" stroke="#32C5FF" fill="none" stroke-linecap="round"></path><path d="M 175.500,150.000 C 173.284,155.935 172.149,155.026 171.500,162.000" stroke-width="3.481" stroke="#32C5FF" fill="none" stroke-linecap="round"></path><path d="M 171.500,162.000 C 166.563,172.838 168.284,172.935 165.500,184.000" stroke-width="2.837" stroke="#32C5FF" fill="none" stroke-linecap="round"></path><path d="M 165.500,184.000 C 164.911,194.753 164.563,193.838 167.500,204.000" stroke-width="3.130" stroke="#32C5FF" fill="none" stroke-linecap="round"></path><path d="M 167.500,204.000 C 169.842,209.664 168.411,207.253 172.500,209.000" stroke-width="4.086" stroke="#32C5FF" fill="none" stroke-linecap="round"></path><path d="M 172.500,209.000 C 179.070,205.316 177.842,207.664 183.500,200.000" stroke-width="3.950" stroke="#32C5FF" fill="none" stroke-linecap="round"></path><path d="M 183.500,200.000 C 185.673,195.567 186.570,196.316 187.500,191.000" stroke-width="3.610" stroke="#32C5FF" fill="none" stroke-linecap="round"></path><path d="M 187.500,191.000 C 187.005,186.386 188.673,188.067 189.500,185.000" stroke-width="4.335" stroke="#32C5FF" fill="none" stroke-linecap="round"></path><path d="M 189.500,185.000 C 197.401,182.200 196.005,181.386 205.500,181.000" stroke-width="4.821" stroke="#32C5FF" fill="none" stroke-linecap="round"></path><path d="M 205.500,181.000 C 211.529,179.538 210.901,180.200 216.500,181.000" stroke-width="3.743" stroke="#32C5FF" fill="none" stroke-linecap="round"></path><path d="M 216.500,181.000 C 219.613,183.376 220.029,182.038 222.500,186.000" stroke-width="4.272" stroke="#32C5FF" fill="none" stroke-linecap="round"></path><path d="M 222.500,186.000 C 224.597,189.152 225.113,188.376 227.500,191.000" stroke-width="4.550" stroke="#32C5FF" fill="none" stroke-linecap="round"></path><path d="M 227.500,191.000 C 230.696,193.467 230.097,192.652 233.500,193.000" stroke-width="4.943" stroke="#32C5FF" fill="none" stroke-linecap="round"></path><path d="M 233.500,193.000 C 237.369,191.664 236.696,192.467 239.500,189.000" stroke-width="4.710" stroke="#32C5FF" fill="none" stroke-linecap="round"></path><path d="M 239.500,189.000 C 240.883,186.084 241.369,186.664 241.500,183.000" stroke-width="4.717" stroke="#32C5FF" fill="none" stroke-linecap="round"></path><path d="M 241.500,183.000 C 241.921,178.490 242.383,178.584 242.500,174.000" stroke-width="3.932" stroke="#32C5FF" fill="none" stroke-linecap="round"></path><path d="M 242.500,174.000 C 243.837,162.974 243.921,162.990 245.500,152.000" stroke-width="2.678" stroke="#32C5FF" fill="none" stroke-linecap="round"></path><path d="M 245.500,152.000 C 245.273,138.649 246.337,146.474 247.500,141.000" stroke-width="3.142" stroke="#32C5FF" fill="none" stroke-linecap="round"></path><path d="M 247.500,141.000 C 255.074,156.255 254.273,148.149 263.500,171.000" stroke-width="3.972" stroke="#32C5FF" fill="none" stroke-linecap="round"></path><path d="M 263.500,171.000 C 267.680,176.888 267.074,177.255 271.500,183.000" stroke-width="3.204" stroke="#32C5FF" fill="none" stroke-linecap="round"></path><path d="M 271.500,183.000 C 274.735,189.182 275.180,188.888 278.500,195.000" stroke-width="3.183" stroke="#32C5FF" fill="none" stroke-linecap="round"></path><path d="M 278.500,195.000 C 281.455,202.299 280.235,197.682 282.500,200.000" stroke-width="3.725" stroke="#32C5FF" fill="none" stroke-linecap="round"></path><path d="M 282.500,200.000 C 288.868,181.190 288.955,185.799 293.500,162.000" stroke-width="3.941" stroke="#32C5FF" fill="none" stroke-linecap="round"></path><path d="M 293.500,162.000 C 294.757,151.958 295.868,152.190 296.500,142.000" stroke-width="3.363" stroke="#32C5FF" fill="none" stroke-linecap="round"></path><path d="M 296.500,142.000 C 299.238,132.100 298.257,131.958 300.500,122.000" stroke-width="2.686" stroke="#32C5FF" fill="none" stroke-linecap="round"></path><path d="M 300.500,122.000 C 301.743,108.009 302.238,108.100 302.500,94.000" stroke-width="2.620" stroke="#32C5FF" fill="none" stroke-linecap="round"></path><path d="M 302.500,94.000 C 302.500,89.500 302.743,89.509 302.500,85.000" stroke-width="3.280" stroke="#32C5FF" fill="none" stroke-linecap="round"></path><path d="M 302.500,85.000 C 301.407,76.781 302.500,81.000 302.500,77.000" stroke-width="3.596" stroke="#32C5FF" fill="none" stroke-linecap="round"></path><path d="M 302.500,77.000 C 305.394,81.320 303.907,77.281 307.500,86.000" stroke-width="4.655" stroke="#32C5FF" fill="none" stroke-linecap="round"></path><path d="M 307.500,86.000 C 309.804,91.403 309.894,91.320 311.500,97.000" stroke-width="3.821" stroke="#32C5FF" fill="none" stroke-linecap="round"></path><path d="M 311.500,97.000 C 313.898,108.194 314.804,107.903 317.500,119.000" stroke-width="2.629" stroke="#32C5FF" fill="none" stroke-linecap="round"></path><path d="M 317.500,119.000 C 323.999,134.840 322.898,135.194 329.500,151.000" stroke-width="2.629" stroke="#32C5FF" fill="none" stroke-linecap="round"></path><path d="M 329.500,151.000 C 331.525,158.494 331.999,158.340 333.500,166.000" stroke-width="2.783" stroke="#32C5FF" fill="none" stroke-linecap="round"></path><path d="M 333.500,166.000 C 336.092,177.640 336.525,177.494 339.500,189.000" stroke-width="2.522" stroke="#32C5FF" fill="none" stroke-linecap="round"></path><path d="M 339.500,189.000 C 340.107,194.937 340.592,192.640 342.500,196.000" stroke-width="3.304" stroke="#32C5FF" fill="none" stroke-linecap="round"></path><path d="M 342.500,196.000 C 346.849,195.821 344.607,196.937 348.500,193.000" stroke-width="4.486" stroke="#32C5FF" fill="none" stroke-linecap="round"></path><path d="M 348.500,193.000 C 357.531,174.015 358.849,175.321 366.500,155.000" stroke-width="2.388" stroke="#32C5FF" fill="none" stroke-linecap="round"></path><path d="M 366.500,155.000 C 369.584,147.272 370.031,147.515 373.500,140.000" stroke-width="2.694" stroke="#32C5FF" fill="none" stroke-linecap="round"></path><path d="M 373.500,140.000 C 377.045,134.528 376.584,134.272 380.500,129.000" stroke-width="3.019" stroke="#32C5FF" fill="none" stroke-linecap="round"></path><path d="M 380.500,129.000 C 384.308,122.922 382.045,126.528 383.500,124.000" stroke-width="3.715" stroke="#32C5FF" fill="none" stroke-linecap="round"></path><path d="M 383.500,124.000 C 380.199,131.757 381.308,126.922 374.500,137.000" stroke-width="4.374" stroke="#32C5FF" fill="none" stroke-linecap="round"></path><path d="M 374.500,137.000 C 366.896,142.802 367.699,143.257 358.500,147.000" stroke-width="2.943" stroke="#32C5FF" fill="none" stroke-linecap="round"></path><path d="M 358.500,147.000 C 350.538,150.106 350.896,150.802 342.500,153.000" stroke-width="2.845" stroke="#32C5FF" fill="none" stroke-linecap="round"></path><path d="M 342.500,153.000 C 333.763,154.422 338.038,154.606 333.500,156.000" stroke-width="3.341" stroke="#32C5FF" fill="none" stroke-linecap="round"></path><path d="M 333.500,156.000 C 337.576,157.318 333.263,157.422 341.500,159.000" stroke-width="4.500" stroke="#32C5FF" fill="none" stroke-linecap="round"></path><path d="M 341.500,159.000 C 348.000,162.000 348.076,161.818 354.500,165.000" stroke-width="3.141" stroke="#32C5FF" fill="none" stroke-linecap="round"></path><path d="M 354.500,165.000 C 366.836,173.466 367.500,171.000 380.500,177.000" stroke-width="2.328" stroke="#32C5FF" fill="none" stroke-linecap="round"></path><path d="M 380.500,177.000 C 396.671,180.344 395.836,180.966 412.500,180.000" stroke-width="2.156" stroke="#32C5FF" fill="none" stroke-linecap="round"></path><path d="M 412.500,180.000 C 420.050,179.085 419.671,179.844 426.500,176.000" stroke-width="2.701" stroke="#32C5FF" fill="none" stroke-linecap="round"></path><path d="M 426.500,176.000 C 431.903,173.197 431.550,173.585 435.500,169.000" stroke-width="3.135" stroke="#32C5FF" fill="none" stroke-linecap="round"></path><path d="M 435.500,169.000 C 437.886,165.682 437.903,166.197 438.500,162.000" stroke-width="3.580" stroke="#32C5FF" fill="none" stroke-linecap="round"></path><path d="M 438.500,162.000 C 439.178,156.423 439.386,156.682 438.500,151.000" stroke-width="3.517" stroke="#32C5FF" fill="none" stroke-linecap="round"></path><path d="M 438.500,151.000 C 438.604,142.484 437.678,144.423 435.500,138.000" stroke-width="3.253" stroke="#32C5FF" fill="none" stroke-linecap="round"></path><path d="M 435.500,138.000 C 431.393,136.296 434.104,135.984 429.500,138.000" stroke-width="4.425" stroke="#32C5FF" fill="none" stroke-linecap="round"></path><path d="M 429.500,138.000 C 426.955,142.343 426.393,140.796 425.500,147.000" stroke-width="3.650" stroke="#32C5FF" fill="none" stroke-linecap="round"></path><path d="M 425.500,147.000 C 424.236,150.569 424.455,150.343 424.500,154.000" stroke-width="4.286" stroke="#32C5FF" fill="none" stroke-linecap="round"></path><path d="M 424.500,154.000 C 424.049,159.540 424.736,157.069 426.500,160.000" stroke-width="4.549" stroke="#32C5FF" fill="none" stroke-linecap="round"></path><path d="M 426.500,160.000 C 434.022,159.699 432.049,161.040 440.500,157.000" stroke-width="3.733" stroke="#32C5FF" fill="none" stroke-linecap="round"></path><path d="M 440.500,157.000 C 446.337,154.163 446.022,154.699 450.500,150.000" stroke-width="3.336" stroke="#32C5FF" fill="none" stroke-linecap="round"></path><path d="M 450.500,150.000 C 451.796,147.583 452.337,148.163 452.500,145.000" stroke-width="3.940" stroke="#32C5FF" fill="none" stroke-linecap="round"></path><path d="M 452.500,145.000 C 452.612,138.778 453.296,142.083 453.500,139.000" stroke-width="4.487" stroke="#32C5FF" fill="none" stroke-linecap="round"></path><path d="M 453.500,139.000 C 454.616,142.704 454.612,139.278 456.500,146.000" stroke-width="4.915" stroke="#32C5FF" fill="none" stroke-linecap="round"></path><path d="M 456.500,146.000 C 460.550,153.318 460.616,153.204 465.500,160.000" stroke-width="3.175" stroke="#32C5FF" fill="none" stroke-linecap="round"></path><path d="M 465.500,160.000 C 482.477,179.155 480.550,180.318 496.500,200.000" stroke-width="2.029" stroke="#32C5FF" fill="none" stroke-linecap="round"></path><path d="M 496.500,200.000 C 500.652,207.199 500.977,206.655 502.500,215.000" stroke-width="2.809" stroke="#32C5FF" fill="none" stroke-linecap="round"></path><path d="M 502.500,215.000 C 505.500,226.622 505.152,226.199 505.500,238.000" stroke-width="2.884" stroke="#32C5FF" fill="none" stroke-linecap="round"></path><path d="M 505.500,238.000 C 505.041,243.553 505.500,243.122 502.500,248.000" stroke-width="3.326" stroke="#32C5FF" fill="none" stroke-linecap="round"></path><path d="M 502.500,248.000 C 498.712,254.285 499.041,254.053 493.500,259.000" stroke-width="3.138" stroke="#32C5FF" fill="none" stroke-linecap="round"></path><path d="M 493.500,259.000 C 488.148,264.484 488.212,263.785 481.500,267.000" stroke-width="3.010" stroke="#32C5FF" fill="none" stroke-linecap="round"></path><path d="M 481.500,267.000 C 469.072,270.412 469.648,271.484 456.500,273.000" stroke-width="2.358" stroke="#32C5FF" fill="none" stroke-linecap="round"></path><path d="M 456.500,273.000 C 451.890,274.314 452.072,273.912 447.500,274.000" stroke-width="3.145" stroke="#32C5FF" fill="none" stroke-linecap="round"></path><path d="M 447.500,274.000 C 443.776,274.127 444.890,273.814 442.500,272.000" stroke-width="3.821" stroke="#32C5FF" fill="none" stroke-linecap="round"></path><path d="M 442.500,272.000 C 439.523,265.647 439.276,266.627 438.500,259.000" stroke-width="3.933" stroke="#32C5FF" fill="none" stroke-linecap="round"></path><path d="M 438.500,259.000 C 437.205,252.290 437.523,252.647 438.500,246.000" stroke-width="3.441" stroke="#32C5FF" fill="none" stroke-linecap="round"></path><path d="M 438.500,246.000 C 441.199,235.138 440.705,235.290 445.500,225.000" stroke-width="2.606" stroke="#32C5FF" fill="none" stroke-linecap="round"></path><path d="M 445.500,225.000 C 448.655,218.767 448.199,218.638 452.500,213.000" stroke-width="2.930" stroke="#32C5FF" fill="none" stroke-linecap="round"></path><path d="M 452.500,213.000 C 456.234,208.665 455.655,208.267 459.500,204.000" stroke-width="3.169" stroke="#32C5FF" fill="none" stroke-linecap="round"></path><path d="M 459.500,204.000 C 462.497,198.114 463.234,198.665 466.500,193.000" stroke-width="3.179" stroke="#32C5FF" fill="none" stroke-linecap="round"></path><path d="M 466.500,193.000 C 472.427,187.341 471.497,186.614 477.500,181.000" stroke-width="2.895" stroke="#32C5FF" fill="none" stroke-linecap="round"></path><path d="M 477.500,181.000 C 482.765,174.895 482.427,174.841 486.500,168.000" stroke-width="2.909" stroke="#32C5FF" fill="none" stroke-linecap="round"></path><path d="M 486.500,168.000 C 488.578,162.527 489.265,162.895 490.500,157.000" stroke-width="3.192" stroke="#32C5FF" fill="none" stroke-linecap="round"></path><path d="M 490.500,157.000 C 493.055,151.142 492.578,151.027 494.500,145.000" stroke-width="3.269" stroke="#32C5FF" fill="none" stroke-linecap="round"></path><path d="M 494.500,145.000 C 497.432,134.032 497.055,134.142 498.500,123.000" stroke-width="3.299" stroke="#32C5FF" fill="none" stroke-linecap="round"></path><path d="M 498.500,123.000 C 498.543,118.381 498.932,118.532 497.500,114.000" stroke-width="3.499" stroke="#32C5FF" fill="none" stroke-linecap="round"></path><path d="M 497.500,114.000 C 496.916,107.125 496.043,107.881 493.500,102.000" stroke-width="3.303" stroke="#32C5FF" fill="none" stroke-linecap="round"></path><path d="M 493.500,102.000 C 488.184,95.080 488.916,95.125 481.500,90.000" stroke-width="2.880" stroke="#32C5FF" fill="none" stroke-linecap="round"></path><path d="M 481.500,90.000 C 475.329,85.561 475.684,85.580 468.500,83.000" stroke-width="3.024" stroke="#32C5FF" fill="none" stroke-linecap="round"></path><path d="M 468.500,83.000 C 462.899,81.000 463.329,81.061 457.500,81.000" stroke-width="3.323" stroke="#32C5FF" fill="none" stroke-linecap="round"></path><path d="M 457.500,81.000 C 453.587,81.043 454.899,81.000 452.500,83.000" stroke-width="4.444" stroke="#32C5FF" fill="none" stroke-linecap="round"></path><path d="M 452.500,83.000 C 452.211,86.529 451.087,85.543 452.500,90.000" stroke-width="4.874" stroke="#32C5FF" fill="none" stroke-linecap="round"></path><path d="M 452.500,90.000 C 452.011,93.139 452.711,92.529 453.500,95.000" stroke-width="5.137" stroke="#32C5FF" fill="none" stroke-linecap="round"></path><path d="M 453.500,95.000 C 456.892,97.665 456.011,98.139 460.500,100.000" stroke-width="5.230" stroke="#32C5FF" fill="none" stroke-linecap="round"></path><path d="M 460.500,100.000 C 469.842,108.798 465.392,103.165 470.500,106.000" stroke-width="4.429" stroke="#32C5FF" fill="none" stroke-linecap="round"></path><path d="M 470.500,106.000 C 468.539,93.905 471.842,100.298 464.500,83.000" stroke-width="4.598" stroke="#32C5FF" fill="none" stroke-linecap="round"></path><path d="M 464.500,83.000 C 462.805,80.537 463.539,80.405 460.500,79.000" stroke-width="4.279" stroke="#32C5FF" fill="none" stroke-linecap="round"></path></svg>
